<?xml version="1.0" encoding="UTF-8" standalone="no"?>
<svg
   width="100%"
   viewBox="0 0 680 880"
   role="img"
   aria-labelledby="svg-title svg-desc"
   style="margin:0 auto;"
   version="1.1"
   id="svg409"
   sodipodi:docname="test.svg"
   inkscape:version="1.1.2 (0a00cf5339, 2022-02-04)"
   xmlns:inkscape="http://www.inkscape.org/namespaces/inkscape"
   xmlns:sodipodi="http://sodipodi.sourceforge.net/DTD/sodipodi-0.dtd"
   xmlns="http://www.w3.org/2000/svg"
   xmlns:svg="http://www.w3.org/2000/svg"
   xmlns:rdf="http://www.w3.org/1999/02/22-rdf-syntax-ns#"
   xmlns:cc="http://creativecommons.org/ns#"
   xmlns:dc="http://purl.org/dc/elements/1.1/">
  <sodipodi:namedview
     id="namedview411"
     pagecolor="#ffffff"
     bordercolor="#666666"
     borderopacity="1.0"
     inkscape:pageshadow="2"
     inkscape:pageopacity="0.0"
     inkscape:pagecheckerboard="0"
     showgrid="false"
     inkscape:zoom="0.38863636"
     inkscape:cx="-223.85965"
     inkscape:cy="586.66667"
     inkscape:window-width="1366"
     inkscape:window-height="740"
     inkscape:window-x="234"
     inkscape:window-y="0"
     inkscape:window-maximized="1"
     inkscape:current-layer="svg409" />
  <title
     id="svg-title">Materials Modeling Landscape</title>
  <desc
     id="svg-desc">
    Poster-style infographic showing GW methods, DFT, DMFT, Monte Carlo, and
    Cheminformatics arranged by system size and accuracy, with dependency arrows.
  </desc>
  <defs
     id="defs25">
    <pattern
       id="dots"
       width="18"
       height="18"
       patternUnits="userSpaceOnUse">
      <circle
         cx="9"
         cy="9"
         r="1.2"
         fill="#7F77DD"
         opacity="0.18"
         id="circle4" />
    </pattern>
    <pattern
       id="hatch"
       width="10"
       height="10"
       patternUnits="userSpaceOnUse">
      <line
         x1="0"
         y1="10"
         x2="10"
         y2="0"
         stroke="#1D9E75"
         stroke-width="0.6"
         opacity="0.22"
         id="line7" />
    </pattern>
    <clipPath
       id="clip-card1">
      <rect
         x="48"
         y="148"
         width="274"
         height="168"
         rx="14"
         id="rect10" />
    </clipPath>
    <clipPath
       id="clip-card2">
      <rect
         x="358"
         y="148"
         width="274"
         height="168"
         rx="14"
         id="rect13" />
    </clipPath>
    <clipPath
       id="clip-card3">
      <rect
         x="48"
         y="346"
         width="274"
         height="168"
         rx="14"
         id="rect16" />
    </clipPath>
    <clipPath
       id="clip-card4">
      <rect
         x="358"
         y="346"
         width="274"
         height="168"
         rx="14"
         id="rect19" />
    </clipPath>
    <clipPath
       id="clip-card5">
      <rect
         x="48"
         y="544"
         width="584"
         height="168"
         rx="14"
         id="rect22" />
    </clipPath>
  </defs>
  <!-- ── HEADER ── -->
  <rect
     x="0"
     y="0"
     width="680"
     height="128"
     fill="#26215C"
     id="rect27" />
  <rect
     x="0"
     y="118"
     width="680"
     height="10"
     fill="#534AB7"
     id="rect29" />
  <!-- decorative hex grid -->
  <g
     opacity="0.12"
     fill="none"
     stroke="#AFA9EC"
     stroke-width="0.7"
     id="g41">
    <polygon
       points="580,18 600,30 600,54 580,66 560,54 560,30"
       id="polygon31" />
    <polygon
       points="616,18 636,30 636,54 616,66 596,54 596,30"
       id="polygon33" />
    <polygon
       points="652,18 672,30 672,54 652,66 632,54 632,30"
       id="polygon35" />
    <polygon
       points="598,54 618,66 618,90 598,102 578,90 578,66"
       id="polygon37" />
    <polygon
       points="634,54 654,66 654,90 634,102 614,90 614,66"
       id="polygon39" />
  </g>
  <text
     x="48"
     y="52"
     font-size="26"
     font-weight="500"
     fill="#EEEDFE"
     font-family="Georgia, serif"
     id="text43">Materials modeling</text>
  <text
     x="48"
     y="78"
     font-size="14"
     fill="#AFA9EC"
     font-family="Georgia, serif"
     id="text45">Five methods — how they differ, and how they connect</text>
  <!-- scale bar -->
  <rect
     x="48"
     y="96"
     width="420"
     height="6"
     rx="3"
     fill="#534AB7"
     id="rect47" />
  <rect
     x="48"
     y="96"
     width="84"
     height="6"
     rx="3"
     fill="#7F77DD"
     id="rect49" />
  <text
     x="48"
     y="114"
     font-size="11"
     fill="#7F77DD"
     font-family="Georgia, serif"
     id="text51">~10 atoms</text>
  <text
     x="244"
     y="114"
     font-size="11"
     fill="#534AB7"
     font-family="Georgia, serif"
     id="text53">~1 000 atoms</text>
  <text
     x="470"
     y="114"
     font-size="11"
     fill="#888780"
     font-family="Georgia, serif"
     id="text55">millions</text>
  <!-- ── ROW 1 : GW ── -->
  <rect
     x="48"
     y="148"
     width="274"
     height="168"
     rx="14"
     fill="#EEEDFE"
     id="rect57" />
  <rect
     x="48"
     y="148"
     width="274"
     height="168"
     rx="14"
     fill="url(#dots)"
     id="rect59" />
  <g
     clip-path="url(#clip-card1)"
     opacity="0.15"
     id="g71">
    <circle
       cx="270"
       cy="200"
       r="70"
       fill="none"
       stroke="#534AB7"
       stroke-width="1.5"
       id="circle61" />
    <circle
       cx="270"
       cy="200"
       r="44"
       fill="none"
       stroke="#534AB7"
       stroke-width="1"
       id="circle63" />
    <circle
       cx="270"
       cy="200"
       r="18"
       fill="#534AB7"
       id="circle65" />
    <ellipse
       cx="270"
       cy="200"
       rx="70"
       ry="24"
       fill="none"
       stroke="#534AB7"
       stroke-width="1"
       transform="rotate(40,270,200)"
       id="ellipse67" />
    <ellipse
       cx="270"
       cy="200"
       rx="70"
       ry="24"
       fill="none"
       stroke="#534AB7"
       stroke-width="1"
       transform="rotate(-40,270,200)"
       id="ellipse69" />
  </g>
  <rect
     x="48"
     y="148"
     width="6"
     height="168"
     rx="3"
     fill="#534AB7"
     id="rect73" />
  <text
     x="68"
     y="183"
     font-size="22"
     font-weight="500"
     fill="#26215C"
     font-family="Georgia, serif"
     id="text75">GW methods</text>
  <text
     x="68"
     y="204"
     font-size="12"
     fill="#534AB7"
     font-family="Georgia, serif"
     id="text77">Many-body perturbation theory</text>
  <line
     x1="68"
     y1="214"
     x2="298"
     y2="214"
     stroke="#AFA9EC"
     stroke-width="0.5"
     id="line79" />
  <text
     x="68"
     y="234"
     font-size="12"
     fill="#3C3489"
     font-family="Georgia, serif"
     id="text81">Corrects DFT band gaps via</text>
  <text
     x="68"
     y="250"
     font-size="12"
     fill="#3C3489"
     font-family="Georgia, serif"
     id="text83">quasiparticle self-energy</text>
  <text
     x="68"
     y="270"
     font-size="12"
     fill="#534AB7"
     font-family="Georgia, serif"
     id="text85">Scale:</text>
  <text
     x="106"
     y="270"
     font-size="12"
     fill="#3C3489"
     font-family="Georgia, serif"
     id="text87">~10–50 atoms</text>
  <text
     x="68"
     y="288"
     font-size="12"
     fill="#534AB7"
     font-family="Georgia, serif"
     id="text89">Cost:</text>
  <rect
     x="100"
     y="278"
     width="18"
     height="8"
     rx="2"
     fill="#534AB7"
     id="rect91" />
  <rect
     x="122"
     y="278"
     width="18"
     height="8"
     rx="2"
     fill="#534AB7"
     id="rect93" />
  <rect
     x="144"
     y="278"
     width="18"
     height="8"
     rx="2"
     fill="#534AB7"
     id="rect95" />
  <rect
     x="166"
     y="278"
     width="18"
     height="8"
     rx="2"
     fill="#AFA9EC"
     id="rect97" />
  <text
     x="190"
     y="288"
     font-size="11"
     fill="#888780"
     font-family="Georgia, serif"
     id="text99">O(N⁴)</text>
  <rect
     x="214.5265"
     y="288"
     width="105.68444"
     height="20"
     rx="10"
     fill="#534ab7"
     id="rect101"
     style="stroke-width:1"
     ry="10" />
  <text
     x="268"
     y="302"
     font-size="11px"
     font-weight="500"
     fill="#eeedfe"
     text-anchor="middle"
     font-family="Georgia, serif"
     id="text103">highest accuracy</text>
  <!-- ── ROW 1 : DFT ── -->
  <rect
     x="358"
     y="148"
     width="274"
     height="168"
     rx="14"
     fill="#E6F1FB"
     id="rect105" />
  <g
     clip-path="url(#clip-card2)"
     opacity="0.13"
     id="g121">
    <path
       d="M360,175 Q390,158 420,175 Q450,192 480,175 Q510,158 540,175 Q570,192 600,175 Q630,158 660,175"
       fill="none"
       stroke="#185FA5"
       stroke-width="1.2"
       id="path107" />
    <path
       d="M360,195 Q390,178 420,195 Q450,212 480,195 Q510,178 540,195 Q570,212 600,195 Q630,178 660,195"
       fill="none"
       stroke="#185FA5"
       stroke-width="1.2"
       id="path109" />
    <path
       d="M360,215 Q390,198 420,215 Q450,232 480,215 Q510,198 540,215 Q570,232 600,215 Q630,198 660,215"
       fill="none"
       stroke="#185FA5"
       stroke-width="1.2"
       id="path111" />
    <path
       d="M360,240 Q390,223 420,240 Q450,257 480,240 Q510,223 540,240 Q570,257 600,240 Q630,223 660,240"
       fill="none"
       stroke="#185FA5"
       stroke-width="1.2"
       id="path113" />
    <path
       d="M360,260 Q390,243 420,260 Q450,277 480,260 Q510,243 540,260 Q570,277 600,260 Q630,243 660,260"
       fill="none"
       stroke="#185FA5"
       stroke-width="1.2"
       id="path115" />
    <path
       d="M360,285 Q390,268 420,285 Q450,302 480,285 Q510,268 540,285 Q570,302 600,285 Q630,268 660,285"
       fill="none"
       stroke="#185FA5"
       stroke-width="1.2"
       id="path117" />
    <path
       d="M360,305 Q390,288 420,305 Q450,322 480,305 Q510,288 540,305 Q570,322 600,305 Q630,288 660,305"
       fill="none"
       stroke="#185FA5"
       stroke-width="1.2"
       id="path119" />
  </g>
  <rect
     x="358"
     y="148"
     width="6"
     height="168"
     rx="3"
     fill="#185FA5"
     id="rect123" />
  <text
     x="378"
     y="183"
     font-size="22"
     font-weight="500"
     fill="#042C53"
     font-family="Georgia, serif"
     id="text125">DFT</text>
  <text
     x="378"
     y="204"
     font-size="12"
     fill="#185FA5"
     font-family="Georgia, serif"
     id="text127">Density functional theory</text>
  <line
     x1="378"
     y1="214"
     x2="612"
     y2="214"
     stroke="#85B7EB"
     stroke-width="0.5"
     id="line129" />
  <text
     x="378"
     y="234"
     font-size="12"
     fill="#0C447C"
     font-family="Georgia, serif"
     id="text131">Ground-state electron density</text>
  <text
     x="378"
     y="250"
     font-size="12"
     fill="#0C447C"
     font-family="Georgia, serif"
     id="text133">via exchange-correlation functional</text>
  <text
     x="378"
     y="270"
     font-size="12"
     fill="#185FA5"
     font-family="Georgia, serif"
     id="text135">Scale:</text>
  <text
     x="416"
     y="270"
     font-size="12"
     fill="#0C447C"
     font-family="Georgia, serif"
     id="text137">100–1 000 atoms</text>
  <text
     x="378"
     y="288"
     font-size="12"
     fill="#185FA5"
     font-family="Georgia, serif"
     id="text139">Cost:</text>
  <rect
     x="410"
     y="278"
     width="18"
     height="8"
     rx="2"
     fill="#185FA5"
     id="rect141" />
  <rect
     x="432"
     y="278"
     width="18"
     height="8"
     rx="2"
     fill="#185FA5"
     id="rect143" />
  <rect
     x="454"
     y="278"
     width="18"
     height="8"
     rx="2"
     fill="#B5D4F4"
     id="rect145" />
  <rect
     x="476"
     y="278"
     width="18"
     height="8"
     rx="2"
     fill="#B5D4F4"
     id="rect147" />
  <text
     x="500"
     y="288"
     font-size="11"
     fill="#888780"
     font-family="Georgia, serif"
     id="text149">O(N³)</text>
  <rect
     x="554"
     y="288"
     width="66"
     height="20"
     rx="10"
     fill="#185fa5"
     id="rect151"
     ry="10" />
  <text
     x="587"
     y="302"
     font-size="11px"
     font-weight="500"
     fill="#e6f1fb"
     text-anchor="middle"
     font-family="Georgia, serif"
     id="text153">workhorse</text>
  <!-- GW → DFT arrow -->
  <path
     d="M322 232 L358 232"
     fill="none"
     stroke="#7F77DD"
     stroke-width="1.2"
     stroke-dasharray="4 3"
     id="path155" />
  <polygon
     points="354,228 362,232 354,236"
     fill="#7F77DD"
     id="polygon157" />
  <text
     x="337"
     y="226"
     font-size="10"
     fill="#888780"
     text-anchor="middle"
     font-family="Georgia, serif"
     id="text159">corrects</text>
  <!-- ── ROW 2 : DMFT ── -->
  <rect
     x="48"
     y="346"
     width="274"
     height="168"
     rx="14"
     fill="#FAECE7"
     id="rect161" />
  <g
     clip-path="url(#clip-card3)"
     opacity="0.12"
     id="g175">
    <circle
       cx="274"
       cy="380"
       r="90"
       fill="none"
       stroke="#993c1d"
       stroke-width="1.2"
       id="circle163" />
    <circle
       cx="274"
       cy="380"
       r="62"
       fill="none"
       stroke="#993c1d"
       stroke-width="1"
       id="circle165" />
    <circle
       cx="274"
       cy="380"
       r="34"
       fill="none"
       stroke="#993c1d"
       stroke-width="0.8"
       id="circle167" />
    <circle
       cx="274"
       cy="380"
       r="14"
       fill="#d85a30"
       id="circle169" />
    <line
       x1="184"
       y1="380"
       x2="364"
       y2="380"
       stroke="#993c1d"
       stroke-width="0.8"
       id="line171" />
    <line
       x1="274"
       y1="290"
       x2="274"
       y2="470"
       stroke="#993c1d"
       stroke-width="0.8"
       id="line173" />
  </g>
  <rect
     x="48"
     y="346"
     width="6"
     height="168"
     rx="3"
     fill="#D85A30"
     id="rect177" />
  <text
     x="68"
     y="381"
     font-size="22"
     font-weight="500"
     fill="#4A1B0C"
     font-family="Georgia, serif"
     id="text179">DMFT</text>
  <text
     x="68"
     y="402"
     font-size="12"
     fill="#993C1D"
     font-family="Georgia, serif"
     id="text181">Dynamical mean-field theory</text>
  <line
     x1="68"
     y1="412"
     x2="298"
     y2="412"
     stroke="#F5C4B3"
     stroke-width="0.5"
     id="line183" />
  <text
     x="68"
     y="432"
     font-size="12"
     fill="#712B13"
     font-family="Georgia, serif"
     id="text185">Maps lattice → impurity problem;</text>
  <text
     x="68"
     y="448"
     font-size="12"
     fill="#712B13"
     font-family="Georgia, serif"
     id="text187">handles strong correlations</text>
  <text
     x="68"
     y="468"
     font-size="12"
     fill="#993C1D"
     font-family="Georgia, serif"
     id="text189">Scale:</text>
  <text
     x="106"
     y="468"
     font-size="12"
     fill="#712B13"
     font-family="Georgia, serif"
     id="text191">unit cell (d/f orbitals)</text>
  <text
     x="68"
     y="486"
     font-size="12"
     fill="#993C1D"
     font-family="Georgia, serif"
     id="text193">Cost:</text>
  <rect
     x="100"
     y="476"
     width="18"
     height="8"
     rx="2"
     fill="#D85A30"
     id="rect195" />
  <rect
     x="122"
     y="476"
     width="18"
     height="8"
     rx="2"
     fill="#D85A30"
     id="rect197" />
  <rect
     x="144"
     y="476"
     width="18"
     height="8"
     rx="2"
     fill="#F5C4B3"
     id="rect199" />
  <rect
     x="166"
     y="476"
     width="18"
     height="8"
     rx="2"
     fill="#F5C4B3"
     id="rect201" />
  <rect
     x="215.411"
     y="486"
     width="100.66098"
     height="20"
     rx="10"
     fill="#d85a30"
     id="rect203"
     style="stroke-width:1"
     ry="10" />
  <text
     x="265"
     y="500"
     font-size="11px"
     font-weight="500"
     fill="#faece7"
     text-anchor="middle"
     font-family="Georgia, serif"
     id="text205">correlated solids</text>
  <!-- ── ROW 2 : Monte Carlo ── -->
  <rect
     x="358"
     y="346"
     width="274"
     height="168"
     rx="14"
     fill="#E1F5EE"
     id="rect207" />
  <rect
     x="358"
     y="346"
     width="274"
     height="168"
     rx="14"
     fill="url(#hatch)"
     id="rect209" />
  <g
     clip-path="url(#clip-card4)"
     opacity="0.14"
     id="g235">
    <circle
       cx="590"
       cy="415"
       r="6"
       fill="#0F6E56"
       id="circle211" />
    <circle
       cx="560"
       cy="390"
       r="4"
       fill="#0F6E56"
       id="circle213" />
    <circle
       cx="608"
       cy="448"
       r="5"
       fill="#0F6E56"
       id="circle215" />
    <circle
       cx="572"
       cy="460"
       r="3"
       fill="#0F6E56"
       id="circle217" />
    <circle
       cx="540"
       cy="430"
       r="7"
       fill="#1D9E75"
       id="circle219" />
    <circle
       cx="620"
       cy="390"
       r="3"
       fill="#1D9E75"
       id="circle221" />
    <circle
       cx="600"
       cy="365"
       r="5"
       fill="#1D9E75"
       id="circle223" />
    <circle
       cx="558"
       cy="355"
       r="4"
       fill="#0F6E56"
       id="circle225" />
    <circle
       cx="630"
       cy="430"
       r="6"
       fill="#0F6E56"
       id="circle227" />
    <circle
       cx="580"
       cy="480"
       r="4"
       fill="#1D9E75"
       id="circle229" />
    <circle
       cx="620"
       cy="480"
       r="3"
       fill="#0F6E56"
       id="circle231" />
    <circle
       cx="548"
       cy="475"
       r="5"
       fill="#1D9E75"
       id="circle233" />
  </g>
  <rect
     x="358"
     y="346"
     width="6"
     height="168"
     rx="3"
     fill="#1D9E75"
     id="rect237" />
  <text
     x="378"
     y="381"
     font-size="22"
     font-weight="500"
     fill="#04342C"
     font-family="Georgia, serif"
     id="text239">Monte Carlo</text>
  <text
     x="378"
     y="402"
     font-size="12"
     fill="#0F6E56"
     font-family="Georgia, serif"
     id="text241">Stochastic sampling methods</text>
  <line
     x1="378"
     y1="412"
     x2="612"
     y2="412"
     stroke="#9FE1CB"
     stroke-width="0.5"
     id="line243" />
  <text
     x="378"
     y="432"
     font-size="12"
     fill="#085041"
     font-family="Georgia, serif"
     id="text245">QMC, kinetic MC, grand-canonical</text>
  <text
     x="378"
     y="448"
     font-size="12"
     fill="#085041"
     font-family="Georgia, serif"
     id="text247">MC — spans electrons to phases</text>
  <text
     x="378"
     y="468"
     font-size="12"
     fill="#0F6E56"
     font-family="Georgia, serif"
     id="text249">Scale:</text>
  <text
     x="416"
     y="468"
     font-size="12"
     fill="#085041"
     font-family="Georgia, serif"
     id="text251">atoms to supercells</text>
  <text
     x="378"
     y="486"
     font-size="12"
     fill="#0F6E56"
     font-family="Georgia, serif"
     id="text253">Cost:</text>
  <rect
     x="410"
     y="476"
     width="18"
     height="8"
     rx="2"
     fill="#1D9E75"
     id="rect255" />
  <rect
     x="432"
     y="476"
     width="18"
     height="8"
     rx="2"
     fill="#1D9E75"
     id="rect257" />
  <rect
     x="454"
     y="476"
     width="18"
     height="8"
     rx="2"
     fill="#9FE1CB"
     id="rect259" />
  <rect
     x="476"
     y="476"
     width="18"
     height="8"
     rx="2"
     fill="#9FE1CB"
     id="rect261" />
  <rect
     x="518.98145"
     y="486"
     width="101.72104"
     height="20"
     rx="10"
     fill="#1d9e75"
     id="rect263"
     style="stroke-width:1"
     ry="10" />
  <text
     x="570"
     y="500"
     font-size="11"
     font-weight="500"
     fill="#E1F5EE"
     text-anchor="middle"
     font-family="Georgia, serif"
     id="text265">stochastic solver</text>
  <!-- DMFT → MC arrow -->
  <path
     d="M322 430 L358 430"
     fill="none"
     stroke="#D85A30"
     stroke-width="1.2"
     stroke-dasharray="4 3"
     id="path267" />
  <polygon
     points="354,426 362,430 354,434"
     fill="#D85A30"
     id="polygon269" />
  <text
     x="337"
     y="414"
     font-size="10px"
     fill="#888780"
     text-anchor="middle"
     font-family="Georgia, serif"
     id="text271">impurity</text>
  <text
     x="337"
     y="426"
     font-size="10px"
     fill="#888780"
     text-anchor="middle"
     font-family="Georgia, serif"
     id="text273">solver</text>
  <!-- DFT → DMFT vertical -->
  <path
     d="M200 316 L200 346"
     fill="none"
     stroke="#185FA5"
     stroke-width="1.2"
     stroke-dasharray="4 3"
     id="path275" />
  <polygon
     points="196,342 200,350 204,342"
     fill="#185FA5"
     id="polygon277" />
  <text
     x="210"
     y="333"
     font-size="10px"
     fill="#888780"
     font-family="Georgia, serif"
     id="text279">Wannier</text>
  <!-- DFT → MC vertical -->
  <path
     d="M500 316 L500 346"
     fill="none"
     stroke="#185FA5"
     stroke-width="1.2"
     stroke-dasharray="4 3"
     id="path281" />
  <polygon
     points="496,342 500,350 504,342"
     fill="#185FA5"
     id="polygon283" />
  <text
     x="510"
     y="333"
     font-size="10"
     fill="#888780"
     font-family="Georgia, serif"
     id="text285">energy surface</text>
  <!-- ── ROW 3 : CHEMINFORMATICS ── -->
  <rect
     x="48"
     y="544"
     width="584"
     height="168"
     rx="14"
     fill="#FAEEDA"
     id="rect287" />
  <g
     clip-path="url(#clip-card5)"
     opacity="0.1"
     id="g319">
    <line
       x1="48"
       y1="560"
       x2="632"
       y2="560"
       stroke="#BA7517"
       stroke-width="1"
       id="line289" />
    <line
       x1="48"
       y1="580"
       x2="632"
       y2="580"
       stroke="#BA7517"
       stroke-width="0.5"
       id="line291" />
    <line
       x1="48"
       y1="600"
       x2="632"
       y2="600"
       stroke="#BA7517"
       stroke-width="0.5"
       id="line293" />
    <line
       x1="48"
       y1="620"
       x2="632"
       y2="620"
       stroke="#BA7517"
       stroke-width="1"
       id="line295" />
    <line
       x1="48"
       y1="640"
       x2="632"
       y2="640"
       stroke="#BA7517"
       stroke-width="0.5"
       id="line297" />
    <line
       x1="48"
       y1="660"
       x2="632"
       y2="660"
       stroke="#BA7517"
       stroke-width="0.5"
       id="line299" />
    <line
       x1="48"
       y1="680"
       x2="632"
       y2="680"
       stroke="#BA7517"
       stroke-width="1"
       id="line301" />
    <line
       x1="48"
       y1="700"
       x2="632"
       y2="700"
       stroke="#BA7517"
       stroke-width="0.5"
       id="line303" />
    <line
       x1="120"
       y1="544"
       x2="120"
       y2="712"
       stroke="#BA7517"
       stroke-width="0.5"
       id="line305" />
    <line
       x1="200"
       y1="544"
       x2="200"
       y2="712"
       stroke="#BA7517"
       stroke-width="1"
       id="line307" />
    <line
       x1="280"
       y1="544"
       x2="280"
       y2="712"
       stroke="#BA7517"
       stroke-width="0.5"
       id="line309" />
    <line
       x1="360"
       y1="544"
       x2="360"
       y2="712"
       stroke="#BA7517"
       stroke-width="1"
       id="line311" />
    <line
       x1="440"
       y1="544"
       x2="440"
       y2="712"
       stroke="#BA7517"
       stroke-width="0.5"
       id="line313" />
    <line
       x1="520"
       y1="544"
       x2="520"
       y2="712"
       stroke="#BA7517"
       stroke-width="0.5"
       id="line315" />
    <line
       x1="600"
       y1="544"
       x2="600"
       y2="712"
       stroke="#BA7517"
       stroke-width="1"
       id="line317" />
  </g>
  <rect
     x="48"
     y="544"
     width="6"
     height="168"
     rx="3"
     fill="#BA7517"
     id="rect321" />
  <text
     x="68"
     y="581"
     font-size="22"
     font-weight="500"
     fill="#412402"
     font-family="Georgia, serif"
     id="text323">Cheminformatics &amp; ML potentials</text>
  <text
     x="68"
     y="602"
     font-size="12"
     fill="#854F0B"
     font-family="Georgia, serif"
     id="text325">Data-driven materials discovery</text>
  <line
     x1="68"
     y1="612"
     x2="608"
     y2="612"
     stroke="#FAC775"
     stroke-width="0.5"
     id="line327" />
  <rect
     x="64.425858"
     y="624"
     width="137.92166"
     height="28"
     rx="5.9999995"
     fill="#ef9f27"
     opacity="0.25"
     id="rect329"
     style="stroke-width:1"
     ry="6" />
  <text
     x="133"
     y="642"
     font-size="12"
     fill="#633806"
     text-anchor="middle"
     font-family="Georgia, serif"
     id="text331">SMILES / fingerprints</text>
  <rect
     x="210"
     y="624"
     width="130"
     height="28"
     rx="6"
     fill="#EF9F27"
     opacity="0.25"
     id="rect333" />
  <text
     x="275"
     y="642"
     font-size="12"
     fill="#633806"
     text-anchor="middle"
     font-family="Georgia, serif"
     id="text335">Graph neural nets</text>
  <rect
     x="352"
     y="624"
     width="130"
     height="28"
     rx="6"
     fill="#EF9F27"
     opacity="0.25"
     id="rect337" />
  <text
     x="417"
     y="642"
     font-size="12"
     fill="#633806"
     text-anchor="middle"
     font-family="Georgia, serif"
     id="text339">ML force fields</text>
  <rect
     x="494"
     y="624"
     width="114"
     height="28"
     rx="6"
     fill="#EF9F27"
     opacity="0.25"
     id="rect341" />
  <text
     x="551"
     y="642"
     font-size="12"
     fill="#633806"
     text-anchor="middle"
     font-family="Georgia, serif"
     id="text343">High-throughput</text>
  <text
     x="68"
     y="678"
     font-size="12"
     fill="#633806"
     font-family="Georgia, serif"
     id="text345">Trained on DFT/MC data — enables screening of millions of candidates at near-zero marginal cost</text>
  <text
     x="68"
     y="696"
     font-size="12"
     fill="#854F0B"
     font-family="Georgia, serif"
     id="text347">Scale:</text>
  <text
     x="106"
     y="696"
     font-size="12"
     fill="#633806"
     font-family="Georgia, serif"
     id="text349">millions of structures        Cost:</text>
  <rect
     x="352"
     y="686"
     width="18"
     height="8"
     rx="2"
     fill="#BA7517"
     id="rect351" />
  <rect
     x="374"
     y="686"
     width="18"
     height="8"
     rx="2"
     fill="#FAC775"
     id="rect353" />
  <rect
     x="396"
     y="686"
     width="18"
     height="8"
     rx="2"
     fill="#FAC775"
     id="rect355" />
  <rect
     x="418"
     y="686"
     width="18"
     height="8"
     rx="2"
     fill="#FAC775"
     id="rect357" />
  <text
     x="444"
     y="696"
     font-size="11"
     fill="#888780"
     font-family="Georgia, serif"
     id="text359">near-zero per candidate</text>
  <rect
     x="519.79169"
     y="703.73285"
     width="81.681328"
     height="20"
     rx="9.999999"
     fill="#ba7517"
     id="rect361"
     ry="10"
     style="stroke-width:1" />
  <text
     x="560.91742"
     y="717.73285"
     font-size="11px"
     font-weight="500"
     fill="#faeeda"
     text-anchor="middle"
     font-family="Georgia, serif"
     id="text363">largest scale</text>
  <!-- Cheminformatics arrows -->
  <path
     d="M200 514 L200 544"
     fill="none"
     stroke="#BA7517"
     stroke-width="1.2"
     stroke-dasharray="4 3"
     id="path365" />
  <polygon
     points="196,540 200,548 204,540"
     fill="#BA7517"
     id="polygon367" />
  <text
     x="140"
     y="531"
     font-size="10px"
     fill="#888780"
     font-family="Georgia, serif"
     id="text369">DFT labels</text>
  <path
     d="M500 514 L500 544"
     fill="none"
     stroke="#BA7517"
     stroke-width="1.2"
     stroke-dasharray="4 3"
     id="path371" />
  <polygon
     points="496,540 500,548 504,540"
     fill="#BA7517"
     id="polygon373" />
  <text
     x="510"
     y="531"
     font-size="10"
     fill="#888780"
     font-family="Georgia, serif"
     id="text375">MC trajectories</text>
  <!-- ── LEGEND ── -->
  <rect
     x="48"
     y="738"
     width="584"
     height="2"
     fill="#d3d1c7"
     rx="1"
     id="rect377" />
  <text
     x="48"
     y="762"
     font-size="13"
     font-weight="500"
     fill="#444441"
     font-family="Georgia, serif"
     id="text379">Method dependencies</text>
  <line
     x1="48"
     y1="784"
     x2="86"
     y2="784"
     stroke="#7F77DD"
     stroke-width="1.2"
     stroke-dasharray="4 3"
     id="line381" />
  <polygon
     points="82,780 90,784 82,788"
     fill="#7F77DD"
     id="polygon383" />
  <text
     x="96"
     y="788"
     font-size="12"
     fill="#5F5E5A"
     font-family="Georgia, serif"
     id="text385">GW corrects DFT band gaps</text>
  <line
     x1="324"
     y1="784"
     x2="362"
     y2="784"
     stroke="#185fa5"
     stroke-width="1.2"
     stroke-dasharray="4, 3"
     id="line387" />
  <polygon
     points="304,780 312,784 304,788 "
     fill="#185fa5"
     id="polygon389"
     transform="translate(54)" />
  <text
     x="372"
     y="788"
     font-size="12px"
     fill="#5f5e5a"
     font-family="Georgia, serif"
     id="text391">DFT provides Hamiltonian / surfaces</text>
  <line
     x1="48"
     y1="808"
     x2="86"
     y2="808"
     stroke="#D85A30"
     stroke-width="1.2"
     stroke-dasharray="4 3"
     id="line393" />
  <polygon
     points="82,804 90,808 82,812"
     fill="#D85A30"
     id="polygon395" />
  <text
     x="96"
     y="812"
     font-size="12"
     fill="#5F5E5A"
     font-family="Georgia, serif"
     id="text397">DMFT uses QMC as impurity solver</text>
  <line
     x1="324"
     y1="808"
     x2="362"
     y2="808"
     stroke="#ba7517"
     stroke-width="1.2"
     stroke-dasharray="4, 3"
     id="line399" />
  <polygon
     points="304,804 312,808 304,812 "
     fill="#ba7517"
     id="polygon401"
     transform="translate(54)" />
  <text
     x="372"
     y="812"
     font-size="12px"
     fill="#5f5e5a"
     font-family="Georgia, serif"
     id="text403">DFT/MC data trains ML models</text>
  <!-- ── FOOTER ── -->
  <rect
     x="0"
     y="840"
     width="680"
     height="36"
     fill="#26215C"
     id="rect405" />
  <text
     x="340"
     y="863"
     font-size="11"
     fill="#7F77DD"
     text-anchor="middle"
     font-family="Georgia, serif"
     id="text407">
    accuracy: GW &gt; DMFT ≈ QMC &gt; DFT &gt; ML     ·     cost per evaluation: inverse order
  </text>
  <metadata
     id="metadata1228">
    <rdf:RDF>
      <cc:Work
         rdf:about="">
        <dc:title>Materials Modeling Landscape</dc:title>
      </cc:Work>
    </rdf:RDF>
  </metadata>
</svg>
